<?xml version="1.0" standalone="no"?>
<!DOCTYPE svg PUBLIC "-//W3C//DTD SVG 20010904//EN"
 "http://www.w3.org/TR/2001/REC-SVG-20010904/DTD/svg10.dtd">
<svg version="1.0" xmlns="http://www.w3.org/2000/svg"
 width="1442.000000pt" height="1385.000000pt" viewBox="0 0 1442.000000 1385.000000"
 preserveAspectRatio="xMidYMid meet">

<g transform="translate(0.000000,1385.000000) scale(0.100000,-0.100000)"
fill="#000000" stroke="none">
<path d="M6513 11013 c-30 -6 -103 -79 -103 -103 0 -10 -4 -21 -9 -24 -5 -3
-12 -23 -16 -43 -4 -21 -11 -43 -16 -49 -5 -6 -16 -58 -25 -115 -9 -57 -20
-112 -25 -121 -5 -10 -9 -31 -9 -47 l0 -29 -160 5 c-158 6 -161 6 -185 -17
-30 -28 -65 -93 -65 -120 0 -11 -4 -20 -10 -20 -5 0 -12 -16 -16 -35 -3 -19
-12 -39 -20 -46 -15 -12 -74 -3 -74 12 0 5 -8 9 -19 9 -10 0 -39 11 -66 25
-37 20 -68 27 -142 32 l-94 6 -54 -53 c-30 -30 -57 -66 -60 -82 -4 -15 -10
-28 -15 -28 -12 0 -21 -103 -20 -222 1 -87 -2 -108 -13 -108 -8 0 -20 7 -27
15 -7 8 -18 15 -24 15 -6 0 -38 14 -71 30 -43 22 -74 30 -112 30 -31 0 -53 5
-55 12 -5 13 -50 -6 -105 -46 -67 -49 -67 -47 -65 -183 1 -69 5 -130 10 -137
5 -6 12 -24 16 -41 13 -59 68 -182 122 -272 34 -57 9 -58 -101 -4 -122 60
-170 81 -184 81 -6 0 -11 4 -11 9 0 5 -15 13 -32 16 -18 4 -42 15 -53 25 -11
10 -38 22 -60 26 -22 4 -43 11 -46 17 -4 5 -27 12 -53 14 -26 3 -49 10 -52 14
-3 5 -16 9 -29 9 -13 0 -26 4 -30 9 -3 5 -31 12 -63 16 -31 3 -64 10 -73 14
-8 5 -55 12 -102 16 -48 4 -90 11 -93 16 -3 5 -40 9 -83 9 -94 0 -106 -9 -98
-72 3 -24 11 -44 16 -46 6 -2 11 -13 11 -24 0 -22 30 -78 41 -78 4 0 10 -13
14 -30 4 -16 10 -30 15 -30 4 0 11 -11 14 -25 4 -14 14 -33 24 -43 9 -9 25
-31 36 -47 35 -56 101 -140 138 -177 21 -21 38 -41 38 -46 0 -4 36 -43 80 -87
90 -89 100 -115 45 -115 -19 0 -35 4 -35 9 0 5 -15 11 -32 14 -18 4 -58 11
-88 16 -30 5 -92 10 -137 10 -48 1 -83 5 -83 11 0 12 -53 13 -65 1 -6 -5 -50
-11 -100 -13 -110 -5 -152 -26 -185 -91 -10 -21 -11 -30 -2 -39 7 -7 12 -22
12 -35 0 -26 32 -90 60 -121 11 -12 20 -25 20 -29 0 -11 194 -203 206 -203 5
-1 27 -19 49 -40 22 -22 46 -40 53 -40 6 0 12 -3 12 -8 0 -4 10 -12 22 -17 13
-6 24 -18 26 -27 3 -14 -3 -18 -27 -18 -16 0 -32 -4 -35 -8 -3 -5 -43 -12 -88
-15 -46 -4 -84 -11 -86 -17 -2 -5 -12 -10 -23 -10 -25 0 -91 -35 -116 -63 -64
-68 -82 -170 -42 -232 11 -16 22 -38 25 -47 4 -10 9 -18 13 -18 4 0 15 -17 26
-37 24 -47 163 -188 194 -198 47 -15 64 -44 73 -124 10 -108 19 -151 29 -151
5 0 9 -10 9 -23 0 -21 46 -77 64 -77 4 0 17 -11 30 -25 13 -14 27 -25 31 -25
15 0 80 -35 97 -52 22 -22 23 -28 3 -28 -8 0 -15 -4 -15 -10 0 -5 -8 -10 -17
-10 -26 0 -113 -32 -113 -42 0 -4 -10 -8 -23 -8 -13 0 -32 -7 -43 -15 -10 -8
-27 -15 -37 -15 -10 0 -37 -11 -61 -24 -23 -13 -57 -27 -74 -31 -18 -3 -32
-11 -32 -16 0 -5 -6 -9 -14 -9 -7 0 -19 -7 -26 -15 -7 -8 -23 -15 -36 -15 -13
0 -24 -4 -24 -9 0 -5 -8 -11 -17 -15 -10 -3 -31 -15 -48 -26 -16 -11 -37 -23
-45 -27 -8 -3 -17 -9 -20 -12 -7 -8 -38 -27 -87 -51 -24 -12 -43 -26 -43 -31
0 -5 -7 -9 -15 -9 -9 0 -18 -7 -21 -15 -4 -8 -12 -15 -20 -15 -7 0 -24 -11
-38 -25 -14 -14 -28 -25 -32 -25 -16 0 -64 -54 -64 -72 0 -38 93 -108 144
-108 9 0 16 -4 16 -10 0 -5 15 -10 33 -10 18 0 38 -5 45 -12 8 -8 100 -13 312
-16 165 -3 300 -8 300 -11 0 -4 -17 -17 -38 -29 -21 -11 -46 -30 -57 -42 -10
-11 -24 -20 -32 -20 -7 0 -13 -4 -13 -9 0 -5 -8 -11 -17 -15 -31 -10 -56 -29
-136 -106 -43 -41 -83 -77 -89 -79 -14 -5 -48 -39 -48 -49 0 -4 -29 -37 -65
-72 -36 -35 -65 -70 -65 -77 0 -7 -4 -13 -10 -13 -5 0 -12 -11 -16 -25 -3 -14
-10 -25 -15 -25 -4 0 -13 -9 -19 -19 -8 -16 -5 -25 12 -44 13 -13 33 -27 46
-31 12 -4 22 -12 22 -17 0 -5 10 -9 23 -9 13 0 28 -5 34 -11 6 -6 66 -13 136
-16 133 -6 156 -16 122 -53 -8 -9 -15 -22 -15 -28 0 -7 -4 -12 -9 -12 -5 0
-31 -35 -57 -77 -26 -43 -52 -79 -56 -81 -4 -2 -8 -12 -8 -22 0 -10 -6 -25
-13 -32 -21 -21 -47 -84 -47 -112 0 -14 -4 -26 -10 -26 -14 0 -12 -36 2 -63
24 -41 41 -57 64 -57 12 0 24 -6 27 -13 3 -9 58 -12 233 -11 194 0 234 3 259
17 17 9 47 17 68 17 21 0 56 9 78 19 22 11 54 23 72 27 17 3 38 10 47 14 8 4
40 15 70 25 30 10 77 28 105 40 95 44 135 42 135 -5 0 -26 34 -68 83 -103 18
-13 18 -14 -2 -48 -11 -18 -30 -52 -41 -74 -11 -22 -34 -62 -51 -90 -16 -27
-32 -57 -35 -65 -3 -8 -12 -28 -20 -43 -7 -16 -14 -36 -14 -45 0 -9 -7 -26
-15 -36 -8 -11 -15 -32 -15 -47 0 -15 -4 -31 -10 -34 -5 -3 -12 -28 -16 -56
-4 -27 -11 -52 -15 -55 -5 -3 -9 -16 -9 -28 0 -13 -7 -37 -15 -52 -8 -16 -15
-43 -15 -61 0 -17 -4 -35 -10 -38 -16 -10 -13 -204 4 -221 21 -20 193 -20 232
1 16 8 36 15 45 15 9 0 24 9 34 20 10 11 26 20 35 20 9 0 25 7 36 15 10 8 27
15 37 15 20 0 200 107 205 121 2 5 10 9 18 9 8 0 17 6 20 14 3 8 19 19 35 25
25 9 29 8 29 -9 0 -10 -4 -21 -9 -24 -9 -6 -17 -43 -28 -125 -3 -20 -7 -109
-9 -198 -4 -139 -2 -167 12 -195 21 -42 31 -48 76 -48 34 0 218 83 218 99 0 3
17 15 38 26 36 19 95 61 137 98 11 9 35 29 53 43 17 14 32 30 32 35 0 11 37
49 48 49 5 0 19 11 32 25 41 44 50 34 50 -55 0 -44 4 -80 9 -80 5 0 11 -28 14
-62 3 -35 8 -74 11 -88 4 -14 10 -41 13 -60 3 -19 9 -39 13 -45 4 -5 11 -29
15 -52 4 -24 11 -43 16 -43 5 0 9 -8 9 -18 0 -44 77 -152 108 -152 8 0 26 8
40 19 15 10 38 22 52 26 14 4 27 10 30 14 19 23 121 111 129 111 5 0 12 -10
16 -22 7 -24 13 -39 39 -100 9 -20 16 -41 16 -46 0 -17 45 -97 66 -118 43 -43
68 -54 122 -54 51 0 112 23 112 42 0 4 6 8 14 8 7 0 25 15 40 34 14 19 42 51
61 72 20 20 38 48 41 61 4 12 10 23 14 23 5 0 12 10 16 23 4 12 9 24 13 27 10
8 61 114 61 126 0 6 9 21 19 33 11 13 22 28 24 34 4 12 57 -37 57 -52 0 -11
91 -105 110 -114 8 -4 29 -16 45 -26 17 -11 42 -20 58 -20 15 -1 27 -5 27 -11
0 -14 52 -12 70 3 26 21 69 83 76 111 3 14 10 26 15 26 5 0 9 7 9 15 0 24 32
17 58 -12 20 -24 32 -28 73 -28 27 0 53 5 57 10 11 16 60 45 76 45 60 0 196
138 196 199 0 6 3 11 8 11 4 0 13 13 20 30 21 47 37 41 92 -30 19 -25 38 -46
42 -48 5 -2 8 -8 8 -14 0 -12 35 -56 108 -135 28 -31 52 -61 52 -65 0 -4 5 -8
11 -8 7 0 21 -10 33 -23 42 -45 69 -57 127 -57 53 0 59 3 98 41 22 23 41 48
41 55 0 8 4 14 9 14 12 0 41 74 41 105 0 13 4 26 9 30 5 3 12 31 16 63 3 31
10 65 15 74 12 22 13 198 2 198 -5 0 -12 50 -16 112 -4 61 -10 116 -15 122 -4
6 -11 34 -14 61 -4 28 -9 61 -13 75 -3 14 -8 39 -11 55 -3 17 -11 44 -19 62
-15 33 -19 83 -6 83 4 0 23 -24 42 -53 19 -28 37 -54 40 -57 3 -3 31 -39 62
-80 65 -85 233 -254 263 -264 11 -3 33 -17 49 -31 16 -14 39 -25 51 -25 11 0
26 -5 32 -11 18 -18 70 11 124 68 45 46 58 66 95 143 9 19 20 42 24 51 5 9 11
41 15 72 4 32 11 57 16 57 11 0 12 227 0 234 -4 3 -11 40 -15 83 -3 42 -11 82
-16 87 -6 6 -10 20 -10 33 0 20 -27 90 -40 103 -7 7 -24 36 -51 85 -11 22 -24
42 -28 45 -3 3 -15 23 -26 45 -11 22 -22 42 -25 45 -10 9 -40 59 -40 66 0 8
108 -5 129 -16 9 -4 36 -16 61 -25 66 -25 110 -48 110 -57 0 -5 13 -8 29 -8
16 0 34 -7 41 -15 7 -8 23 -15 36 -15 13 0 24 -4 24 -9 0 -5 14 -12 30 -16 17
-4 30 -11 30 -16 0 -5 11 -9 24 -9 14 0 28 -4 31 -10 3 -5 16 -10 28 -10 13 0
34 -8 47 -17 22 -16 52 -18 256 -18 l231 0 41 42 c40 41 42 45 42 105 0 40 -8
84 -21 118 -11 30 -23 64 -27 75 -3 11 -11 31 -19 45 -7 14 -13 35 -13 48 0
18 6 22 29 22 39 0 101 27 128 56 12 13 25 24 29 24 4 0 17 11 30 26 22 23 24
33 24 134 0 62 -4 111 -10 115 -5 3 -10 24 -10 46 0 21 -4 39 -9 39 -5 0 -13
10 -16 21 -4 12 -43 58 -86 102 -44 44 -78 85 -76 91 2 6 51 12 123 14 65 2
121 7 124 11 3 5 41 11 85 15 44 4 84 11 90 17 5 5 21 9 36 9 15 0 31 5 34 10
3 6 26 10 49 10 27 0 48 6 56 15 7 8 20 15 30 15 10 0 23 7 30 15 7 8 19 15
26 15 8 0 14 5 14 10 0 6 6 10 14 10 8 0 31 15 50 34 44 41 47 79 11 118 -14
15 -25 31 -25 35 0 8 -13 20 -104 91 -22 17 -45 36 -51 40 -5 4 -25 17 -44 28
-19 10 -45 29 -59 42 -14 12 -32 22 -41 22 -19 0 -41 19 -41 35 0 10 45 35 64
35 6 0 23 6 37 14 14 7 38 16 53 20 15 4 42 22 61 40 32 32 33 34 22 77 -7 24
-15 46 -18 49 -3 3 -9 15 -13 28 -4 12 -12 22 -17 22 -5 0 -9 5 -9 11 0 25
-134 140 -180 154 -14 4 -27 10 -30 14 -3 3 -14 11 -24 17 -32 17 -29 29 16
53 24 12 57 31 73 42 17 10 38 22 48 25 9 4 17 9 17 13 0 4 17 15 38 26 20 11
43 26 50 32 7 7 17 13 21 13 4 0 31 23 59 50 28 28 55 50 60 50 9 0 62 56 62
66 0 3 14 23 30 44 61 77 26 145 -86 166 -22 4 -42 11 -45 17 -4 5 -30 12 -58
15 -28 2 -51 8 -51 13 0 5 -16 9 -36 9 -19 0 -44 5 -55 10 -10 6 -55 13 -99
17 -44 3 -83 10 -86 15 -3 4 -86 8 -185 8 -132 0 -179 3 -179 12 0 14 50 68
62 68 5 0 25 16 45 35 20 19 39 35 43 35 4 0 39 31 76 70 38 38 73 70 77 70 4
0 31 23 60 50 29 28 59 52 67 55 8 3 25 20 38 39 13 19 42 53 66 77 23 24 45
51 49 59 4 8 16 30 27 48 26 42 37 117 21 136 -6 7 -29 16 -51 20 -22 3 -40
11 -40 16 0 6 -13 10 -29 10 -20 0 -34 8 -47 28 -30 45 -68 78 -99 86 -111 26
-144 28 -400 23 -253 -6 -302 -11 -375 -39 -8 -4 -42 -9 -75 -13 -33 -3 -61
-10 -63 -15 -6 -16 -32 -11 -32 6 0 15 50 125 61 134 14 11 57 99 64 128 3 18
10 32 15 32 4 0 11 12 15 27 3 15 15 45 26 67 11 23 22 58 26 78 3 21 9 38 14
38 5 0 9 11 9 24 0 14 4 28 10 31 5 3 12 28 16 55 4 28 10 50 15 50 16 0 11
225 -6 256 -12 24 -14 58 -8 195 6 165 6 167 -16 174 -25 8 -131 -4 -131 -15
0 -4 -22 -10 -49 -13 -27 -3 -58 -10 -68 -16 -40 -21 -92 -41 -107 -41 -9 0
-16 -4 -16 -10 0 -5 -5 -10 -11 -10 -12 0 -81 -31 -89 -39 -7 -9 -39 -27 -87
-51 -24 -12 -43 -26 -43 -30 0 -5 -13 -11 -30 -15 -16 -4 -30 -10 -30 -15 0
-4 -8 -10 -17 -14 -26 -8 -55 -28 -80 -54 -12 -12 -36 -25 -53 -29 l-31 -6 7
64 c3 35 10 69 14 74 8 9 19 121 21 210 2 49 -9 133 -21 160 -5 11 -11 38 -14
59 -6 43 -32 76 -88 112 -30 19 -51 24 -103 24 -37 0 -65 -4 -65 -10 0 -5 -9
-10 -20 -10 -19 0 -20 7 -20 105 0 63 -4 105 -10 105 -5 0 -10 17 -10 38 0 35
-4 41 -37 58 -21 10 -39 22 -41 27 -5 10 -119 9 -140 -2 -9 -5 -39 -19 -65
-32 -70 -34 -85 -44 -111 -68 -12 -11 -26 -21 -31 -21 -13 0 -182 -164 -232
-226 -17 -21 -51 -62 -75 -90 -65 -78 -76 -91 -88 -113 -6 -12 -17 -21 -25
-21 -12 0 -15 18 -15 94 0 52 -4 97 -9 101 -5 3 -13 36 -17 73 -4 45 -15 78
-30 102 -13 19 -24 39 -24 43 0 5 -10 23 -22 39 -21 30 -23 30 -87 26 -47 -4
-80 -13 -116 -33 -27 -15 -52 -31 -55 -34 -3 -4 -18 -15 -35 -26 -16 -10 -41
-32 -55 -48 -14 -17 -40 -47 -57 -67 -18 -21 -33 -41 -33 -45 0 -4 -12 -22
-27 -40 -49 -58 -65 -79 -76 -105 -6 -14 -15 -27 -18 -30 -26 -19 -105 -201
-99 -226 1 -4 -2 -10 -7 -13 -4 -3 -13 -14 -18 -25 -17 -30 -29 -21 -41 31 -6
26 -13 55 -16 63 -4 8 -14 40 -24 70 -10 30 -22 59 -26 65 -4 5 -8 17 -8 27 0
10 -13 44 -30 75 -16 31 -30 64 -30 74 0 11 -4 19 -10 19 -5 0 -10 6 -10 14 0
8 -6 21 -13 28 -7 7 -22 36 -32 63 -11 28 -22 52 -25 55 -4 3 -15 21 -26 40
-10 19 -29 46 -42 60 -12 14 -25 33 -28 43 -3 9 -10 17 -15 17 -5 0 -9 6 -9
13 0 16 -147 161 -172 170 -10 3 -18 11 -18 16 0 9 -74 42 -88 40 -4 -1 -17
-4 -29 -6z"/>
<path d="M13241 9715 c-16 -14 -38 -47 -47 -72 -10 -26 -26 -63 -36 -82 -19
-37 -25 -131 -8 -131 6 0 10 -7 10 -15 0 -20 -6 -19 -41 6 -23 16 -29 28 -29
55 0 65 -94 172 -172 196 -49 14 -80 -5 -103 -66 -16 -41 -16 -48 -1 -98 22
-77 66 -140 119 -171 25 -15 53 -27 62 -27 23 0 13 -23 -16 -36 -139 -63 -185
-91 -206 -129 -13 -22 -23 -55 -23 -72 0 -27 7 -38 43 -64 31 -23 49 -29 70
-25 16 3 27 1 27 -5 0 -15 105 -2 142 17 14 7 37 27 50 44 l24 31 33 -79 c54
-131 150 -222 233 -222 50 1 98 48 98 97 0 23 -82 188 -112 225 -12 15 -20 30
-17 32 2 3 22 1 44 -4 26 -6 64 -4 121 7 108 20 147 51 168 137 18 73 11 88
-48 104 -31 8 -46 17 -46 28 0 15 -11 16 -89 11 -48 -3 -105 -13 -126 -21 -42
-18 -42 -27 -5 79 11 33 24 67 29 75 20 36 22 78 5 119 -32 79 -96 103 -153
56z m-71 -236 c-11 -36 -20 -49 -20 -28 0 25 12 59 20 59 5 0 5 -14 0 -31z
m30 -142 c31 -16 48 -69 33 -108 -7 -17 -7 -31 -2 -35 5 -3 9 -10 9 -16 0 -7
-5 -6 -15 2 -8 6 -18 9 -23 6 -6 -3 -24 -1 -42 5 -28 10 -34 9 -58 -13 -20
-19 -39 -26 -75 -27 -56 -1 -55 12 1 36 27 11 37 12 43 2 12 -21 39 13 27 35
-5 9 -6 35 -3 58 5 30 14 44 36 57 16 9 27 21 25 28 -3 6 -2 14 2 18 4 4 9 -3
12 -15 3 -11 16 -26 30 -33z m394 -47 c7 -7 -8 -10 -43 -10 -48 0 -52 2 -40
16 14 17 64 13 83 -6z m-145 -14 c-12 -10 -59 -15 -59 -6 0 5 14 10 32 10 17
0 29 -2 27 -4z m-379 -215 c-6 -12 -16 -19 -21 -15 -6 4 -4 13 7 25 21 24 29
18 14 -10z m220 -13 c0 -5 -4 -8 -10 -8 -5 0 -10 10 -10 23 0 18 2 19 10 7 5
-8 10 -18 10 -22z m122 -152 c-7 -12 -42 35 -42 59 0 15 5 12 24 -15 13 -19
21 -39 18 -44z m-182 24 c0 -5 -4 -10 -10 -10 -5 0 -10 5 -10 10 0 6 5 10 10
10 6 0 10 -4 10 -10z"/>
</g>
</svg>
